<?xml version="1.0" encoding="UTF-8"?>
<svg version="1.1" xmlns="http://www.w3.org/2000/svg" width="1017" height="245">
<path d="M0 0 C1.62808594 0.74056641 1.62808594 0.74056641 3.2890625 1.49609375 C6.36384339 2.91332034 9.42591458 4.35316623 12.48339844 5.80712891 C14.40911758 6.71992127 16.33731823 7.62748011 18.26660156 8.53271484 C21.33079157 9.97130364 24.39159749 11.4165038 27.44961548 12.86813354 C28.68735801 13.45406553 29.9264302 14.03719724 31.1668396 14.61746216 C32.92355639 15.44016853 34.67478313 16.27456649 36.42578125 17.109375 C37.45098877 17.59374023 38.47619629 18.07810547 39.5324707 18.57714844 C42 20 42 20 44 23 C44.3203125 25.50390625 44.3203125 25.50390625 44 28 C39.28202773 33.96339973 30.63484246 36.45305771 23.86328125 39.22021484 C20.84938038 40.48153552 17.89611941 41.8647692 14.9375 43.25 C14.33381592 43.52972656 13.73013184 43.80945313 13.1081543 44.09765625 C9.28811284 45.87991885 5.52169429 47.74672545 1.76953125 49.66796875 C0.85631104 50.1259082 -0.05690918 50.58384766 -0.99780273 51.05566406 C-2.78380448 51.95238808 -4.56136942 52.86619438 -6.32836914 53.79980469 C-13.78867376 57.51016744 -20.52513607 58.44398142 -28.546875 55.85546875 C-29.60390625 55.30503906 -30.6609375 54.75460938 -31.75 54.1875 C-33.02444707 53.54629329 -34.29920926 52.90571264 -35.57421875 52.265625 C-36.26821777 51.90791016 -36.9622168 51.55019531 -37.67724609 51.18164062 C-42.26387194 48.84831404 -46.91945096 46.65573277 -51.5625 44.4375 C-52.55209717 43.96062744 -53.54169434 43.48375488 -54.5612793 42.99243164 C-60.00811438 40.3782947 -65.47276053 37.91655633 -71.0625 35.625 C-79.87788056 31.87899688 -79.87788056 31.87899688 -83 28 C-83.04296875 24.57421875 -83.04296875 24.57421875 -82 21 C-79.69257897 19.30659857 -77.95692974 18.33699679 -75.375 17.25 C-73.91139249 16.57826843 -72.44785499 15.90638433 -70.984375 15.234375 C-69.78651367 14.70166992 -69.78651367 14.70166992 -68.56445312 14.15820312 C-64.86079578 12.48549268 -61.21503456 10.69834232 -57.56005859 8.92236328 C-20.05905847 -9.25105435 -20.05905847 -9.25105435 0 0 Z " fill="#FEFEFE" transform="translate(230,67)"/>
<path d="M0 0 C0.84965332 0.41266113 1.69930664 0.82532227 2.57470703 1.25048828 C3.4717334 1.69118652 4.36875977 2.13188477 5.29296875 2.5859375 C7.18166498 3.49349283 9.07099461 4.39973113 10.9609375 5.3046875 C13.5926399 6.56899457 16.2230838 7.83514027 18.84619141 9.1171875 C31.67230703 15.38812496 31.67230703 15.38812496 45.58984375 14.2890625 C47.94437725 13.27997671 50.19523461 12.11888028 52.48046875 10.9609375 C55.01790512 9.84545949 57.55837374 8.74130452 60.10546875 7.6484375 C64.33856645 5.82818049 68.52534792 3.96575132 72.63671875 1.8828125 C73.30364746 1.55063721 73.97057617 1.21846191 74.65771484 0.8762207 C75.92434881 0.24036347 77.18315971 -0.41140931 78.43212891 -1.08129883 C81.53382716 -2.62519932 83.15379719 -3.10859335 86.58203125 -2.37890625 C87.53851563 -1.93675781 88.495 -1.49460938 89.48046875 -1.0390625 C90.3725 -0.636875 91.26453125 -0.2346875 92.18359375 0.1796875 C93.44429687 0.81390625 93.44429687 0.81390625 94.73046875 1.4609375 C96.00664062 2.09515625 96.00664062 2.09515625 97.30859375 2.7421875 C99.48046875 3.9609375 99.48046875 3.9609375 101.48046875 5.9609375 C101.91796875 8.8359375 101.91796875 8.8359375 101.48046875 11.9609375 C97.47806239 15.86051524 92.67994374 17.97082866 87.66796875 20.2734375 C86.8284668 20.66515137 85.98896484 21.05686523 85.12402344 21.46044922 C79.21587507 24.20248181 73.26576904 26.84225794 67.28686523 29.42578125 C55.7479651 34.39423894 55.7479651 34.39423894 44.52416992 40.01904297 C40.79964532 41.73559009 37.41989198 41.65200406 33.48046875 40.9609375 C28.28638822 39.03773826 23.37569494 36.60706483 18.41796875 34.1484375 C17.00194208 33.46139091 15.58502032 32.77618626 14.16723633 32.09277344 C12.01804465 31.05642099 9.86958306 30.0187958 7.72428894 28.97439575 C0.11085666 25.27110174 -7.60533821 21.80492569 -15.34594727 18.37573242 C-16.25530029 17.96556885 -17.16465332 17.55540527 -18.1015625 17.1328125 C-18.88764893 16.7831543 -19.67373535 16.43349609 -20.48364258 16.07324219 C-22.60908625 14.91200926 -23.99597013 13.83982828 -25.51953125 11.9609375 C-26.01953125 9.0234375 -26.01953125 9.0234375 -25.51953125 5.9609375 C-18.70221896 -1.79669372 -9.08323524 -4.46033478 0 0 Z " fill="#FEFEFE" transform="translate(172.51953125,146.0390625)"/>
<path d="M0 0 C1.22705095 0.63698646 2.45493582 1.27236872 3.68359375 1.90625 C4.60567627 2.38578125 4.60567627 2.38578125 5.54638672 2.875 C21.20629328 11.56917927 21.20629328 11.56917927 38.375 13.8125 C46.12399543 11.09273846 53.61800336 7.56506824 61.125 4.25 C62.22199219 3.76853516 63.31898438 3.28707031 64.44921875 2.79101562 C70.77538193 0.02154479 70.77538193 0.02154479 76.96875 -3.02734375 C80.33416419 -4.64995416 81.80356549 -4.28640293 85.375 -3.1875 C96.29134163 1.56170653 96.29134163 1.56170653 98.375 4.8125 C98.44140625 8.265625 98.44140625 8.265625 97.375 11.8125 C94.83984375 13.859375 94.83984375 13.859375 91.3125 15.5625 C90.3378479 16.04384399 90.3378479 16.04384399 89.34350586 16.53491211 C87.03487732 17.66002163 84.70737722 18.73751158 82.375 19.8125 C81.44977539 20.24643066 80.52455078 20.68036133 79.57128906 21.12744141 C68.85364096 26.15144909 58.0643787 31.01895268 47.19555664 35.70727539 C43.71900421 37.20305038 43.71900421 37.20305038 40.390625 38.99609375 C36.27214592 40.66423741 32.28169616 40.11736833 28.15625 38.73022461 C27.0734375 38.23014893 25.990625 37.73007324 24.875 37.21484375 C24.28159821 36.94520813 23.68819641 36.67557251 23.07681274 36.39776611 C21.17015621 35.52771327 19.27269577 34.63940459 17.375 33.75 C16.05957896 33.14450846 14.7436583 32.54010117 13.42724609 31.93676758 C10.86564713 30.76014767 8.30764231 29.57626198 5.75292969 28.38476562 C3.06275938 27.13261928 0.36765801 25.89460664 -2.3359375 24.671875 C-5.79142214 23.10411696 -9.21029615 21.46750387 -12.625 19.8125 C-13.29789063 19.50006348 -13.97078125 19.18762695 -14.6640625 18.86572266 C-16.78962926 17.87395253 -18.89520289 16.84750354 -21 15.8125 C-21.6501709 15.51625732 -22.3003418 15.22001465 -22.97021484 14.91479492 C-26.49168043 13.12831624 -27.52611376 12.10982239 -28.7890625 8.3125 C-28.625 4.8125 -28.625 4.8125 -27.01953125 2.55078125 C-24.51656196 0.7337807 -22.11444319 -0.68819916 -19.3125 -2 C-18.40886719 -2.43957031 -17.50523437 -2.87914063 -16.57421875 -3.33203125 C-10.35229584 -5.13680094 -5.49902886 -2.91693217 0 0 Z " fill="#FEFEFE" transform="translate(175.625,116.1875)"/>
<path d="M0 0 C32.8 0 32.8 0 40 7 C43.23765539 11.80066145 43.91143964 16.35920134 43 22 C40.74849691 26.41961717 37.99891607 29.11189395 34 32 C34.53109375 32.268125 35.0621875 32.53625 35.609375 32.8125 C41.13636373 35.87856674 44.22819877 38.84299072 46 45 C47.08432962 51.4607973 45.72550995 56.64305759 42 62 C37.20648497 66.79351503 31.55062654 68.68987469 25 70 C16.75 70 8.5 70 0 70 C0 46.9 0 23.8 0 0 Z M10 8 C10 14.93 10 21.86 10 29 C13.031875 29.061875 13.031875 29.061875 16.125 29.125 C17.26195312 29.14820312 18.39890625 29.17140625 19.5703125 29.1953125 C23.77396676 28.95592444 27.36654457 28.18284703 30.8125 25.6875 C32.81713567 22.83880721 33.15644249 20.45349293 32.78515625 17.00390625 C31.94700174 12.56325801 31.94700174 12.56325801 28.93359375 9.26953125 C25.14053858 7.62806263 21.73222461 7.67262836 17.6875 7.8125 C15.150625 7.874375 12.61375 7.93625 10 8 Z M10 37 C10 44.92 10 52.84 10 61 C12.68125 61.061875 15.3625 61.12375 18.125 61.1875 C19.37434326 61.22846802 19.37434326 61.22846802 20.64892578 61.27026367 C25.50273718 61.3241177 28.81697656 60.72722957 33 58 C35.27947698 54.58078453 35.32513105 53.09689823 35.375 49.0625 C35.41753906 47.50208984 35.41753906 47.50208984 35.4609375 45.91015625 C34.89165178 42.31593711 33.82016901 41.22241579 31 39 C24.28436664 36.08015941 17.20948465 36.86267648 10 37 Z " fill="#FDFDFD" transform="translate(330,89)"/>
<path d="M0 0 C0.44988281 0.39058594 0.89976562 0.78117187 1.36328125 1.18359375 C1.36328125 3.18359375 1.36328125 3.18359375 -1.13671875 5.80859375 C-1.96171875 6.59234375 -2.78671875 7.37609375 -3.63671875 8.18359375 C-4.29671875 7.91546875 -4.95671875 7.64734375 -5.63671875 7.37109375 C-6.62671875 6.97921875 -7.61671875 6.58734375 -8.63671875 6.18359375 C-9.2296875 5.91933594 -9.82265625 5.65507813 -10.43359375 5.3828125 C-16.83314951 2.68219997 -22.93651233 2.07350829 -29.63671875 4.18359375 C-32.79706746 6.29049289 -33.17631896 6.57237255 -33.88671875 10.05859375 C-34.27939128 12.08769264 -34.27939128 12.08769264 -33.63671875 14.18359375 C-30.21909447 18.42221158 -27.08662448 20.07276105 -21.94921875 21.68359375 C-2.99811112 28.04035941 -2.99811112 28.04035941 2.17578125 37.49609375 C4.25931018 43.96599938 4.05612773 48.23940955 1.36328125 54.37109375 C-2.04056999 60.63071848 -6.47086034 62.90507401 -12.88671875 65.49609375 C-25.79143453 67.86195831 -36.80612827 65.4039874 -47.63671875 58.18359375 C-47.63671875 57.19359375 -47.63671875 56.20359375 -47.63671875 55.18359375 C-46.97671875 55.18359375 -46.31671875 55.18359375 -45.63671875 55.18359375 C-45.36859375 54.54421875 -45.10046875 53.90484375 -44.82421875 53.24609375 C-43.63671875 51.18359375 -43.63671875 51.18359375 -40.63671875 50.18359375 C-40.63671875 50.84359375 -40.63671875 51.50359375 -40.63671875 52.18359375 C-39.55390625 52.61671875 -39.55390625 52.61671875 -38.44921875 53.05859375 C-36.75541764 53.73611419 -35.07457039 54.44977001 -33.42578125 55.23046875 C-29.92402414 56.42714765 -26.89626584 56.52136266 -23.19921875 56.55859375 C-21.28302734 56.60113281 -21.28302734 56.60113281 -19.328125 56.64453125 C-15.06918242 56.11272678 -12.94247367 54.86609171 -9.63671875 52.18359375 C-8.50047756 49.91111137 -8.37225032 48.40056611 -8.26171875 45.87109375 C-8.21273437 45.11183594 -8.16375 44.35257813 -8.11328125 43.5703125 C-8.92955575 39.84834445 -10.67058886 38.53225343 -13.63671875 36.18359375 C-17.44341393 34.42392053 -21.43514277 33.23007226 -25.42382812 31.95507812 C-32.5938888 29.52696993 -38.03193326 26.04885779 -43.13671875 20.43359375 C-45.46014239 15.39950919 -45.70811518 10.46751889 -43.9765625 5.16015625 C-41.34462772 -0.05813869 -37.10808805 -3.48072908 -31.6875 -5.56640625 C-20.49462819 -8.73295545 -9.64580506 -6.20501688 0 0 Z " fill="#FDFDFD" transform="translate(613.63671875,93.81640625)"/>
<path d="M0 0 C0.33 14.85 0.66 29.7 1 45 C7.73217846 37.83483101 7.73217846 37.83483101 14.39941406 30.60961914 C19.15626181 25.701401 22.58480952 22.40439087 29.734375 21.80859375 C31.49070007 21.82080995 33.24880699 21.86527798 35 22 C35 25 35 25 33.7421875 26.33203125 C33.12601563 26.82058594 32.50984375 27.30914062 31.875 27.8125 C27.50405683 31.45758257 23.50567499 35.40193192 19.5 39.4375 C18.86433105 40.07727783 18.22866211 40.71705566 17.57373047 41.3762207 C16.04714431 42.91549029 14.52328326 44.45746175 13 46 C14.77402465 49.77920401 17.01077685 52.37817759 19.875 55.4375 C20.35171143 55.95103027 20.82842285 56.46456055 21.31958008 56.99365234 C23.43372461 59.26936787 25.56035449 61.5331704 27.68994141 63.79443359 C28.81545783 64.99023434 29.9391939 66.1877136 31.06103516 67.38696289 C32.1329365 68.53239454 33.20934433 69.673628 34.29052734 70.81030273 C38 74.77524024 38 74.77524024 38 77 C27.51299658 78.06906345 27.51299658 78.06906345 24.04296875 75.6171875 C22.5625 73.8125 22.5625 73.8125 21.37890625 72.01953125 C19.5495481 69.340273 17.31568984 67.27310997 15 65 C12.72777617 62.62479173 10.48847425 60.2194886 8.25 57.8125 C7.66089844 57.18408203 7.07179688 56.55566406 6.46484375 55.90820312 C5.90410156 55.30556641 5.34335937 54.70292969 4.765625 54.08203125 C4.25805664 53.53780518 3.75048828 52.9935791 3.22753906 52.43286133 C2 51 2 51 1 49 C0.67 58.24 0.34 67.48 0 77 C-3.3 77 -6.6 77 -10 77 C-10 51.92 -10 26.84 -10 1 C-3 0 -3 0 0 0 Z " fill="#FDFDFD" transform="translate(823,82)"/>
<path d="M0 0 C4.95640719 3.93857357 8.27423411 8.94078791 9.515625 15.16015625 C9.97857047 19.56585393 9.89631461 23.9686724 9.75 28.390625 C5.77504402 29.33145957 2.06834768 29.5195243 -2.01171875 29.5234375 C-3.29498047 29.52472656 -4.57824219 29.52601563 -5.90039062 29.52734375 C-6.56272705 29.52524902 -7.22506348 29.5231543 -7.9074707 29.52099609 C-9.94164389 29.51561404 -11.97559899 29.52097089 -14.00976562 29.52734375 C-15.92885742 29.52541016 -15.92885742 29.52541016 -17.88671875 29.5234375 C-19.05936279 29.52230957 -20.23200684 29.52118164 -21.44018555 29.52001953 C-24.25 29.390625 -24.25 29.390625 -26.25 28.390625 C-24.06608903 35.66928924 -24.06608903 35.66928924 -20.0625 42.015625 C-15.1068254 44.43839925 -10.40729571 44.94052391 -5.0625 43.578125 C-3.6703125 42.9903125 -3.6703125 42.9903125 -2.25 42.390625 C-0.25 41.72395833 1.75 41.05729167 3.75 40.390625 C7.75 45.140625 7.75 45.140625 7.75 47.390625 C6.16925436 48.20814803 4.58528777 49.01944497 3 49.828125 C2.11828125 50.28058594 1.2365625 50.73304688 0.328125 51.19921875 C-6.70595421 54.44981596 -14.22919314 54.39816851 -21.5 51.828125 C-27.68402018 49.07104222 -31.27468338 44.85899562 -34.0625 38.765625 C-37.39963198 29.28114462 -37.52720926 18.48271066 -33.25 9.2265625 C-30.25284997 3.96183186 -26.27299127 -0.28813997 -20.39453125 -2.21875 C-13.48498582 -3.47731929 -6.17266263 -3.65215873 0 0 Z M-22.9375 10.015625 C-24.89511948 13.29402648 -24.89511948 13.29402648 -26.25 21.390625 C-17.34 21.390625 -8.43 21.390625 0.75 21.390625 C-0.287778 12.38029422 -0.287778 12.38029422 -6 6.015625 C-12.90343556 4.09800401 -17.81529939 5.08313552 -22.9375 10.015625 Z " fill="#FDFDFD" transform="translate(545.25,106.609375)"/>
<path d="M0 0 C3.86831219 3.49728724 4.79157083 6.67859717 5.06968689 11.86769104 C5.16376187 15.7982604 5.15687889 19.72235674 5.11230469 23.65356445 C5.10099692 26.0724633 5.09833682 28.49059901 5.11274719 30.90948486 C5.12012613 32.40863803 5.11194293 33.90796853 5.08634949 35.40692139 C5.0338971 39.39359144 5.0338971 39.39359144 6.93896484 42.75732422 C7.67445557 43.32471313 7.67445557 43.32471313 8.42480469 43.90356445 C8.52599362 46.68892293 7.92334677 49.13892202 7.42480469 51.90356445 C2.42568545 51.42745786 -0.55352214 49.87194227 -4.57519531 46.90356445 C-6.18394531 47.86262695 -6.18394531 47.86262695 -7.82519531 48.84106445 C-13.1483919 52.01450857 -18.45768428 52.62681699 -24.57519531 51.90356445 C-29.85745353 50.19541768 -33.59198496 47.67670102 -36.57519531 42.90356445 C-38.57509019 38.07048517 -38.1516161 32.53675669 -36.45019531 27.71606445 C-32.00584428 21.0495379 -27.48745566 19.10313506 -19.83300781 17.39575195 C-14.73162775 16.62503986 -9.71826911 16.65735347 -4.57519531 16.90356445 C-5.34941152 10.84943825 -5.34941152 10.84943825 -8.51269531 5.84106445 C-15.92058508 3.5733431 -24.01502258 4.91206639 -31.57519531 5.90356445 C-32.23519531 3.59356445 -32.89519531 1.28356445 -33.57519531 -1.09643555 C-24.07699455 -6.57616676 -8.89349396 -6.19043418 0 0 Z M-26.63769531 29.02856445 C-27.94827686 33.04768118 -27.95428258 36.87934259 -26.57519531 40.90356445 C-23.76285382 43.70337881 -21.61925999 44.33495999 -17.70019531 44.34106445 C-12.95274286 44.20102161 -10.21344036 43.08702887 -6.57519531 39.90356445 C-4.153892 36.27160949 -4.36496746 34.52007098 -4.45019531 30.21606445 C-4.47726562 28.44682617 -4.47726562 28.44682617 -4.50488281 26.6418457 C-4.52808594 25.73821289 -4.55128906 24.83458008 -4.57519531 23.90356445 C-16.60925638 23.18500898 -16.60925638 23.18500898 -26.63769531 29.02856445 Z " fill="#FDFDFD" transform="translate(726.5751953125,108.096435546875)"/>
<path d="M0 0 C3.3 0.33 6.6 0.66 10 1 C12.16057021 5.87769888 14.0078885 10.76309293 15.6640625 15.83203125 C15.90160248 16.54985275 16.13914246 17.26767426 16.38388062 18.00724792 C17.1338218 20.27471987 17.87968938 22.54350222 18.625 24.8125 C19.37800428 27.09916146 20.13189936 29.38551967 20.88754272 31.67131042 C21.35553543 33.08751993 21.82192307 34.50426107 22.28652954 35.92158508 C23.47113586 39.52961003 23.47113586 39.52961003 25 43 C25.58285767 41.19813232 25.58285767 41.19813232 26.17749023 39.35986328 C27.61648421 34.91273003 29.05755757 30.46627294 30.49926758 26.02001953 C31.12353555 24.09377189 31.74723576 22.16734016 32.37036133 20.24072266 C33.26495345 17.47510213 34.16157025 14.71014522 35.05859375 11.9453125 C35.3377916 11.0806839 35.61698944 10.2160553 35.90464783 9.32522583 C36.16484207 8.52454681 36.42503632 7.7238678 36.69311523 6.89892578 C36.92183823 6.1927713 37.15056122 5.48661682 37.38621521 4.75906372 C38 3 38 3 39 1 C42.3 1 45.6 1 49 1 C47.08897151 7.51016032 45.03163921 13.92404082 42.75 20.3125 C40.5087952 26.63096892 38.34107005 32.96567617 36.26416016 39.34008789 C26.96892207 67.8000549 26.96892207 67.8000549 16.203125 74.06640625 C12.49260196 75.63877328 9.00732955 75.81215643 5 76 C4.67 73.36 4.34 70.72 4 68 C4.73605469 67.8040625 5.47210938 67.608125 6.23046875 67.40625 C11.52899194 65.78239613 15.214109 64.62497827 18.1875 59.75 C18.82454385 58.51643099 19.44158143 57.2710964 20 56 C19.54584717 55.61618164 19.09169434 55.23236328 18.6237793 54.83691406 C16.59698092 52.54408126 15.95253828 50.52196481 15.01953125 47.609375 C14.66366943 46.51753906 14.30780762 45.42570312 13.94116211 44.30078125 C13.56870361 43.12902344 13.19624512 41.95726562 12.8125 40.75 C12.01974216 38.30680022 11.22544168 35.86410051 10.4296875 33.421875 C9.82785645 31.56852539 9.82785645 31.56852539 9.21386719 29.67773438 C7.04483532 23.10607388 4.72389701 16.58718943 2.38793945 10.07324219 C1.91553833 8.7376123 1.91553833 8.7376123 1.43359375 7.375 C1.15572021 6.59898438 0.87784668 5.82296875 0.59155273 5.0234375 C0 3 0 3 0 0 Z " fill="#FDFDFD" transform="translate(387,104)"/>
<path d="M0 0 C0 4.29 0 8.58 0 13 C5.94 12.67 11.88 12.34 18 12 C17.67 14.97 17.34 17.94 17 21 C11.39 21 5.78 21 0 21 C0.02806429 25.93166115 0.07101797 30.8584233 0.15258789 35.78881836 C0.17578695 37.4658024 0.19016812 39.14293252 0.19555664 40.82006836 C0.2048331 43.23123405 0.24578791 45.64009624 0.29296875 48.05078125 C0.2890361 48.80087967 0.28510345 49.55097809 0.28105164 50.32380676 C0.29288412 52.70066648 0.29288412 52.70066648 1 56 C3.64507428 58.20630377 5.10252304 58.96127988 8.53515625 59.109375 C9.36917969 58.99078125 10.20320312 58.8721875 11.0625 58.75 C11.89910156 58.64171875 12.73570312 58.5334375 13.59765625 58.421875 C15.76702138 58.04091332 17.8732991 57.56973973 20 57 C21.5625 59.3125 21.5625 59.3125 23 62 C22 65 22 65 20.25 65.94921875 C12.48680029 68.49651865 5.48576263 69.27921188 -2.20703125 66.0546875 C-6.18853789 63.71262477 -8.54289404 60.37131788 -10 56 C-10.15346953 53.34393699 -10.25717898 50.70904905 -10.31640625 48.05078125 C-10.33718735 47.27816452 -10.35796844 46.50554779 -10.37937927 45.70951843 C-10.44471038 43.2439352 -10.50368315 40.77824639 -10.5625 38.3125 C-10.60570087 36.63996309 -10.64931566 34.96743681 -10.69335938 33.29492188 C-10.8003749 29.1967225 -10.90168857 25.09841704 -11 21 C-14.63 21 -18.26 21 -22 21 C-22 18.36 -22 15.72 -22 13 C-18.04 13 -14.08 13 -10 13 C-10 9.04 -10 5.08 -10 1 C-6 0 -6 0 0 0 Z " fill="#FEFEFE" transform="translate(652,92)"/>
<path d="M0 0 C0 4.29 0 8.58 0 13 C5.94 13 11.88 13 18 13 C17.67 15.64 17.34 18.28 17 21 C11.39 21 5.78 21 0 21 C0.09682741 25.94839035 0.19948533 30.89592104 0.31738281 35.84375 C0.35571104 37.52759329 0.39055712 39.21151955 0.421875 40.89550781 C0.46744287 43.31345306 0.52544923 45.73082528 0.5859375 48.1484375 C0.59748871 48.9036972 0.60903992 49.65895691 0.62094116 50.43710327 C0.60330066 54.67825198 0.60330066 54.67825198 3 58 C9.04676485 59.55559926 14.12612181 58.81556235 20 57 C21.5625 59.3125 21.5625 59.3125 23 62 C22 65 22 65 20.25 65.94921875 C13.21496547 68.25758945 7.39307154 69.07447265 0.25 66.8125 C-5.00206855 63.88346177 -8.21718291 60.76556883 -10 55 C-10.16496802 52.31989051 -10.23378795 49.7500642 -10.1953125 47.07421875 C-10.1924826 46.32662796 -10.18965271 45.57903717 -10.18673706 44.80879211 C-10.17559469 42.4348612 -10.15050162 40.06131575 -10.125 37.6875 C-10.11496249 36.0722711 -10.10583799 34.45703624 -10.09765625 32.84179688 C-10.07567489 28.89438406 -10.04118657 24.94725726 -10 21 C-13.96 21 -17.92 21 -22 21 C-22 18.36 -22 15.72 -22 13 C-18.04 13 -14.08 13 -10 13 C-10 9.04 -10 5.08 -10 1 C-6.52674819 -0.1577506 -3.63932552 -0.06866652 0 0 Z " fill="#FDFDFD" transform="translate(471,92)"/>
<path d="M0 0 C-0.61277612 2.96175123 -1.25372522 4.38058783 -3 7 C-5.74183087 6.51614749 -8.20095439 5.9240839 -10.8125 4.9375 C-15.94157586 3.42894828 -20.11634686 3.45663852 -25.25 4.9375 C-29.31450419 7.98587814 -30.78333368 11.10599392 -32 16 C-32.81296155 23.26688082 -32.89514233 29.95353496 -29.265625 36.44921875 C-26.75228216 39.52883945 -24.95109284 40.87610285 -20.94140625 41.3984375 C-19.82636719 41.39070313 -18.71132813 41.38296875 -17.5625 41.375 C-15.89380859 41.38660156 -15.89380859 41.38660156 -14.19140625 41.3984375 C-10.70808187 40.9635549 -8.90742343 39.88508757 -6 38 C-5.01 38 -4.02 38 -3 38 C-1.25 39.75 -1.25 39.75 0 42 C-0.18359375 44.00390625 -0.18359375 44.00390625 -1 46 C-2.70703125 47.23046875 -2.70703125 47.23046875 -4.8125 48.1875 C-5.49957031 48.51105469 -6.18664062 48.83460938 -6.89453125 49.16796875 C-14.46159595 52.15829302 -22.4600113 51.81968326 -30.03125 48.98046875 C-33.008515 47.49774352 -34.88521387 45.53774335 -37 43 C-37.721875 42.21625 -38.44375 41.4325 -39.1875 40.625 C-42.86800708 35.29461043 -43.36405395 29.39302185 -43.3125 23.0625 C-43.30831055 22.35883301 -43.30412109 21.65516602 -43.29980469 20.93017578 C-43.1275252 13.02547968 -40.98333551 7.22916938 -36 1 C-25.78341043 -7.83209846 -11.05646642 -7.37097761 0 0 Z " fill="#FDFDFD" transform="translate(795,109)"/>
<path d="" fill="#000000" transform="translate(0,0)"/>
<path d="" fill="#000000" transform="translate(0,0)"/>
<path d="" fill="#000000" transform="translate(0,0)"/>
<path d="" fill="#000000" transform="translate(0,0)"/>
<path d="" fill="#000000" transform="translate(0,0)"/>
<path d="" fill="#000000" transform="translate(0,0)"/>
<path d="" fill="#000000" transform="translate(0,0)"/>
<path d="" fill="#000000" transform="translate(0,0)"/>
<path d="" fill="#000000" transform="translate(0,0)"/>
<path d="" fill="#000000" transform="translate(0,0)"/>
<path d="" fill="#000000" transform="translate(0,0)"/>
<path d="" fill="#000000" transform="translate(0,0)"/>
<path d="" fill="#000000" transform="translate(0,0)"/>
<path d="" fill="#000000" transform="translate(0,0)"/>
<path d="" fill="#000000" transform="translate(0,0)"/>
<path d="" fill="#000000" transform="translate(0,0)"/>
<path d="" fill="#000000" transform="translate(0,0)"/>
<path d="" fill="#000000" transform="translate(0,0)"/>
<path d="" fill="#000000" transform="translate(0,0)"/>
<path d="" fill="#000000" transform="translate(0,0)"/>
<path d="" fill="#000000" transform="translate(0,0)"/>
<path d="" fill="#000000" transform="translate(0,0)"/>
<path d="" fill="#000000" transform="translate(0,0)"/>
<path d="" fill="#000000" transform="translate(0,0)"/>
<path d="" fill="#000000" transform="translate(0,0)"/>
<path d="" fill="#000000" transform="translate(0,0)"/>
<path d="" fill="#000000" transform="translate(0,0)"/>
<path d="" fill="#000000" transform="translate(0,0)"/>
<path d="" fill="#000000" transform="translate(0,0)"/>
<path d="" fill="#000000" transform="translate(0,0)"/>
<path d="" fill="#000000" transform="translate(0,0)"/>
<path d="" fill="#000000" transform="translate(0,0)"/>
<path d="" fill="#000000" transform="translate(0,0)"/>
<path d="" fill="#000000" transform="translate(0,0)"/>
<path d="" fill="#000000" transform="translate(0,0)"/>
<path d="" fill="#000000" transform="translate(0,0)"/>
<path d="" fill="#000000" transform="translate(0,0)"/>
<path d="" fill="#000000" transform="translate(0,0)"/>
<path d="" fill="#000000" transform="translate(0,0)"/>
<path d="" fill="#000000" transform="translate(0,0)"/>
<path d="" fill="#000000" transform="translate(0,0)"/>
<path d="" fill="#000000" transform="translate(0,0)"/>
<path d="" fill="#000000" transform="translate(0,0)"/>
<path d="" fill="#000000" transform="translate(0,0)"/>
<path d="" fill="#000000" transform="translate(0,0)"/>
<path d="" fill="#000000" transform="translate(0,0)"/>
<path d="" fill="#000000" transform="translate(0,0)"/>
<path d="" fill="#000000" transform="translate(0,0)"/>
<path d="" fill="#000000" transform="translate(0,0)"/>
<path d="" fill="#000000" transform="translate(0,0)"/>
<path d="" fill="#000000" transform="translate(0,0)"/>
<path d="" fill="#000000" transform="translate(0,0)"/>
<path d="" fill="#000000" transform="translate(0,0)"/>
<path d="" fill="#000000" transform="translate(0,0)"/>
<path d="" fill="#000000" transform="translate(0,0)"/>
<path d="" fill="#000000" transform="translate(0,0)"/>
<path d="" fill="#000000" transform="translate(0,0)"/>
<path d="" fill="#000000" transform="translate(0,0)"/>
<path d="" fill="#000000" transform="translate(0,0)"/>
<path d="" fill="#000000" transform="translate(0,0)"/>
<path d="" fill="#000000" transform="translate(0,0)"/>
<path d="" fill="#000000" transform="translate(0,0)"/>
<path d="" fill="#000000" transform="translate(0,0)"/>
<path d="" fill="#000000" transform="translate(0,0)"/>
<path d="" fill="#000000" transform="translate(0,0)"/>
<path d="" fill="#000000" transform="translate(0,0)"/>
<path d="" fill="#000000" transform="translate(0,0)"/>
<path d="" fill="#000000" transform="translate(0,0)"/>
<path d="" fill="#000000" transform="translate(0,0)"/>
<path d="" fill="#000000" transform="translate(0,0)"/>
<path d="" fill="#000000" transform="translate(0,0)"/>
<path d="" fill="#000000" transform="translate(0,0)"/>
<path d="" fill="#000000" transform="translate(0,0)"/>
<path d="" fill="#000000" transform="translate(0,0)"/>
<path d="" fill="#000000" transform="translate(0,0)"/>
<path d="" fill="#000000" transform="translate(0,0)"/>
<path d="" fill="#000000" transform="translate(0,0)"/>
<path d="" fill="#000000" transform="translate(0,0)"/>
<path d="" fill="#000000" transform="translate(0,0)"/>
</svg>
